<svg width="167" height="61" viewBox="0 0 167 61" fill="none" xmlns="http://www.w3.org/2000/svg">
<path d="M37.6568 12.6292L59.4323 50.7542H52.0647L44.9699 38.2819H23.1944L16.1542 50.7542H9.11401L30.8895 12.6292H37.6568ZM33.9457 18.4569L26.4143 32.3997H41.75L34.164 18.4569H33.9457Z" fill="#231F20"/>
<path d="M68.2183 12.6292V44.872H97.416V50.7542H61.6693V12.6292H68.2183Z" fill="#231F20"/>
<path d="M107.566 12.6292V50.7542H101.017V12.6292H107.566Z" fill="#231F20"/>
<path d="M138.346 12.6292L160.122 50.7542H152.754L145.659 38.2819H123.884L116.844 50.7542H109.804L131.58 12.6292H138.346ZM134.635 18.4569L127.104 32.3997H142.439L134.854 18.4569H134.635Z" fill="#231F20"/>
</svg>
