<?xml version="1.0" standalone="no"?>
<!DOCTYPE svg PUBLIC "-//W3C//DTD SVG 20010904//EN"
 "http://www.w3.org/TR/2001/REC-SVG-20010904/DTD/svg10.dtd">
<svg version="1.0" xmlns="http://www.w3.org/2000/svg"
 width="386.000000pt" height="152.000000pt" viewBox="0 0 386.000000 152.000000"
 preserveAspectRatio="xMidYMid meet">

<g transform="translate(0.000000,152.000000) scale(0.100000,-0.100000)"
fill="#000000" stroke="none">
<path d="M663 1227 c-11 -23 -194 -347 -389 -688 -46 -81 -84 -149 -84 -153 0
-4 35 -6 77 -4 l78 3 76 135 77 135 254 3 255 2 31 -57 c17 -32 51 -94 76
-138 l46 -80 85 -5 c47 -3 85 -4 85 -3 0 0 -112 196 -248 435 l-248 433 -80 3
c-77 3 -81 2 -91 -21z m176 -266 c45 -81 81 -151 81 -155 0 -3 -76 -6 -170 -6
-93 0 -170 2 -170 4 0 12 163 306 170 306 4 0 44 -67 89 -149z"/>
<path d="M1390 1238 c0 -7 -2 -203 -3 -435 l-2 -423 408 0 407 0 0 65 0 65
-335 0 -335 0 0 370 0 370 -70 0 c-49 0 -70 -4 -70 -12z"/>
<path d="M2290 815 l0 -435 75 0 75 0 0 435 0 435 -75 0 -75 0 0 -435z"/>
<path d="M2977 1228 c-16 -25 -487 -849 -487 -851 0 -1 37 0 82 3 l83 5 75
137 75 137 255 0 255 0 78 -139 78 -140 84 0 83 0 -49 88 c-27 48 -138 242
-246 432 l-198 345 -77 3 c-71 3 -78 1 -91 -20z m172 -266 c44 -82 81 -152 81
-156 0 -3 -77 -6 -171 -6 -94 0 -169 4 -167 8 16 41 164 309 169 306 4 -2 43
-71 88 -152z"/>
</g>
</svg>
